HIERARCHY
ROOT Hips
{
	OFFSET -14.64140 90.27770 -84.91600
	CHANNELS 6 Xposition Yposition Zposition Zrotation Xrotation Yrotation
	JOINT Spine
	{
		OFFSET 0.00000 13.20850 -1.60436
		CHANNELS 3 Zrotation Xrotation Yrotation
		JOINT Spine1
		{
			OFFSET 0.00000 8.61716 0.00000
			CHANNELS 3 Zrotation Xrotation Yrotation
			JOINT Spine2
			{
				OFFSET 0.00000 8.61717 0.00000
				CHANNELS 3 Zrotation Xrotation Yrotation
				JOINT Spine3
				{
					OFFSET 0.00000 8.61717 0.00000
					CHANNELS 3 Zrotation Xrotation Yrotation
					JOINT Neck
					{
						OFFSET 0.00000 11.07920 1.10792
						CHANNELS 3 Zrotation Xrotation Yrotation
						JOINT Neck1
						{
							OFFSET 0.00000 7.08032 0.00000
							CHANNELS 3 Zrotation Xrotation Yrotation
							JOINT Head
							{
								OFFSET 0.00000 7.08031 0.00000
								CHANNELS 3 Zrotation Xrotation Yrotation
								End site
								{
									OFFSET 0.00000 0.00000 0.00000
								}
							}
						}
					}
					JOINT RightShoulder
					{
						OFFSET -0.01000 7.91373 5.19711
						CHANNELS 3 Zrotation Xrotation Yrotation
						JOINT RightArm
						{
							OFFSET -18.41580 0.00000 0.00000
							CHANNELS 3 Zrotation Xrotation Yrotation
							JOINT RightForeArm
							{
								OFFSET -29.11090 0.00000 0.00000
								CHANNELS 3 Zrotation Xrotation Yrotation
								JOINT RightHand
								{
									OFFSET -24.65040 0.00000 0.00000
									CHANNELS 3 Zrotation Xrotation Yrotation
									JOINT RightHandThumb1
									{
										OFFSET -5.35114 -0.85590 3.97906
										CHANNELS 3 Zrotation Xrotation Yrotation
										JOINT RightHandThumb2
										{
											OFFSET -4.52789 0.00000 0.00000
											CHANNELS 3 Zrotation Xrotation Yrotation
											JOINT RightHandThumb3
											{
												OFFSET -2.46976 0.00000 0.00000
												CHANNELS 3 Zrotation Xrotation Yrotation
												End site
												{
													OFFSET 0.00000 0.00000 0.00000
												}
											}
										}
									}
									JOINT RightHandIndex1
									{
										OFFSET -14.26970 0.00000 2.88139
										CHANNELS 3 Zrotation Xrotation Yrotation
										JOINT RightHandIndex2
										{
											OFFSET -5.48836 0.00000 0.00000
											CHANNELS 3 Zrotation Xrotation Yrotation
											JOINT RightHandIndex3
											{
												OFFSET -3.01859 0.00000 0.00000
												CHANNELS 3 Zrotation Xrotation Yrotation
												End site
												{
													OFFSET 0.00000 0.00000 0.00000
												}
											}
										}
									}
									JOINT RightHandMiddle1
									{
										OFFSET -14.26970 0.00000 -0.09147
										CHANNELS 3 Zrotation Xrotation Yrotation
										JOINT RightHandMiddle2
										{
											OFFSET -6.17441 0.00000 0.00000
											CHANNELS 3 Zrotation Xrotation Yrotation
											JOINT RightHandMiddle3
											{
												OFFSET -3.56743 0.00000 0.00000
												CHANNELS 3 Zrotation Xrotation Yrotation
												End site
												{
													OFFSET 0.00000 0.00000 0.00000
												}
											}
										}
									}
									JOINT RightHandRing1
									{
										OFFSET -12.69180 0.00000 -3.06433
										CHANNELS 3 Zrotation Xrotation Yrotation
										JOINT RightHandRing2
										{
											OFFSET -5.62556 0.00000 0.00000
											CHANNELS 3 Zrotation Xrotation Yrotation
											JOINT RightHandRing3
											{
												OFFSET -3.56744 0.00000 0.00000
												CHANNELS 3 Zrotation Xrotation Yrotation
												End site
												{
													OFFSET 0.00000 0.00000 0.00000
												}
											}
										}
									}
									JOINT RightHandPinky1
									{
										OFFSET -11.11390 0.00000 -6.03719
										CHANNELS 3 Zrotation Xrotation Yrotation
										JOINT RightHandPinky2
										{
											OFFSET -4.52789 0.00000 0.00000
											CHANNELS 3 Zrotation Xrotation Yrotation
											JOINT RightHandPinky3
											{
												OFFSET -2.46976 0.00000 0.00000
												CHANNELS 3 Zrotation Xrotation Yrotation
												End site
												{
													OFFSET 0.00000 0.00000 0.00000
												}
											}
										}
									}
								}
							}
						}
					}
					JOINT LeftShoulder
					{
						OFFSET 0.01000 7.91373 5.19711
						CHANNELS 3 Zrotation Xrotation Yrotation
						JOINT LeftArm
						{
							OFFSET 18.41580 0.00000 0.00000
							CHANNELS 3 Zrotation Xrotation Yrotation
							JOINT LeftForeArm
							{
								OFFSET 29.11090 0.00000 0.00000
								CHANNELS 3 Zrotation Xrotation Yrotation
								JOINT LeftHand
								{
									OFFSET 24.65040 0.00000 0.00000
									CHANNELS 3 Zrotation Xrotation Yrotation
									JOINT LeftHandThumb1
									{
										OFFSET 5.35114 -0.85590 3.97906
										CHANNELS 3 Zrotation Xrotation Yrotation
										JOINT LeftHandThumb2
										{
											OFFSET 4.52789 0.00000 0.00000
											CHANNELS 3 Zrotation Xrotation Yrotation
											JOINT LeftHandThumb3
											{
												OFFSET 2.46977 0.00000 0.00000
												CHANNELS 3 Zrotation Xrotation Yrotation
												End site
												{
													OFFSET 0.00000 0.00000 0.00000
												}
											}
										}
									}
									JOINT LeftHandIndex1
									{
										OFFSET 14.26970 0.00000 2.88139
										CHANNELS 3 Zrotation Xrotation Yrotation
										JOINT LeftHandIndex2
										{
											OFFSET 5.48836 0.00000 0.00000
											CHANNELS 3 Zrotation Xrotation Yrotation
											JOINT LeftHandIndex3
											{
												OFFSET 3.01859 0.00000 0.00000
												CHANNELS 3 Zrotation Xrotation Yrotation
												End site
												{
													OFFSET 0.00000 0.00000 0.00000
												}
											}
										}
									}
									JOINT LeftHandMiddle1
									{
										OFFSET 14.26970 0.00000 -0.09147
										CHANNELS 3 Zrotation Xrotation Yrotation
										JOINT LeftHandMiddle2
										{
											OFFSET 6.17440 0.00000 0.00000
											CHANNELS 3 Zrotation Xrotation Yrotation
											JOINT LeftHandMiddle3
											{
												OFFSET 3.56744 0.00000 0.00000
												CHANNELS 3 Zrotation Xrotation Yrotation
												End site
												{
													OFFSET 0.00000 0.00000 0.00000
												}
											}
										}
									}
									JOINT LeftHandRing1
									{
										OFFSET 12.69180 0.00000 -3.06433
										CHANNELS 3 Zrotation Xrotation Yrotation
										JOINT LeftHandRing2
										{
											OFFSET 5.62556 0.00000 0.00000
											CHANNELS 3 Zrotation Xrotation Yrotation
											JOINT LeftHandRing3
											{
												OFFSET 3.56744 0.00000 0.00000
												CHANNELS 3 Zrotation Xrotation Yrotation
												End site
												{
													OFFSET 0.00000 0.00000 0.00000
												}
											}
										}
									}
									JOINT LeftHandPinky1
									{
										OFFSET 11.11390 0.00000 -6.03719
										CHANNELS 3 Zrotation Xrotation Yrotation
										JOINT LeftHandPinky2
										{
											OFFSET 4.52789 0.00000 0.00000
											CHANNELS 3 Zrotation Xrotation Yrotation
											JOINT LeftHandPinky3
											{
												OFFSET 2.46976 0.00000 0.00000
												CHANNELS 3 Zrotation Xrotation Yrotation
												End site
												{
													OFFSET 0.00000 0.00000 0.00000
												}
											}
										}
									}
								}
							}
						}
					}
					JOINT pCube4
					{
						OFFSET 0.00000 10.91090 1.10792
						CHANNELS 3 Zrotation Xrotation Yrotation
						End site
						{
							OFFSET 0.00000 0.00000 0.00000
						}
					}
				}
			}
		}
	}
	JOINT RightUpLeg
	{
		OFFSET -9.98441 0.00000 0.00000
		CHANNELS 3 Zrotation Xrotation Yrotation
		JOINT RightLeg
		{
			OFFSET 0.00000 -42.11790 0.00000
			CHANNELS 3 Zrotation Xrotation Yrotation
			JOINT RightFoot
			{
				OFFSET 0.00000 -45.00020 -0.00001
				CHANNELS 3 Zrotation Xrotation Yrotation
				JOINT RightForeFoot
				{
					OFFSET 0.00000 -3.74820 0.00000
					CHANNELS 3 Zrotation Xrotation Yrotation
					JOINT RightToeBase
					{
						OFFSET 0.00000 0.06325 14.43120
						CHANNELS 3 Zrotation Xrotation Yrotation
						End site
						{
							OFFSET 0.00000 0.00000 0.00000
						}
					}
				}
			}
		}
	}
	JOINT LeftUpLeg
	{
		OFFSET 9.98441 0.00000 0.00000
		CHANNELS 3 Zrotation Xrotation Yrotation
		JOINT LeftLeg
		{
			OFFSET 0.00000 -42.11800 0.00000
			CHANNELS 3 Zrotation Xrotation Yrotation
			JOINT LeftFoot
			{
				OFFSET 0.00000 -45.00070 0.00000
				CHANNELS 3 Zrotation Xrotation Yrotation
				JOINT LeftForeFoot
				{
					OFFSET 0.00000 -3.74824 0.00000
					CHANNELS 3 Zrotation Xrotation Yrotation
					JOINT LeftToeBase
					{
						OFFSET 0.00000 0.06325 14.43110
						CHANNELS 3 Zrotation Xrotation Yrotation
						End site
						{
							OFFSET 0.00000 0.00000 0.00000
						}
					}
				}
			}
		}
	}
}
MOTION
Frames: 4
Frame Time: 0.050000
-0.003978443713895159 -0.014401303926353663 -0.02819365806904708 -0.00824713704193064 0.021527043447752216 0.01703117015769055 -1.2781736906054315 1.667721993888816 -0.9783969565391067 -0.9037130221127864 3.9637544318207234 0.40726417343764687 -1.1645793976784766 -1.9452147840845084 -0.3616727722485971 0.6311099528001853 0.6063421059623142 -0.6867501691077832 0.7068607333519764 14.469689333484324 -2.462657579179303 0.1803731564928651 0.3032064270505076 -7.687914532736669 1.107911743973929 -15.061061293168196 -0.6091954303180931 -6.0282508179796706 2.01793424022261 -14.863466716010066 72.73140156642071 28.935190514171808 7.909563326021737 2.70381518902165 2.3209587578353186 66.95130873797653 21.616707867075473 -0.36837563306220633 -4.4222442642790485 4.5356415772052445 -0.1045651906351513 -1.5562331200203747 0.008229505203642986 0.022034868423168038 -56.25469176480278 0.011481336348080221 -0.03611129631867841 -56.26662302731117 -38.74669277396115 -0.021652789887830797 0.034654996094548314 0.005184043731485603 0.027915138260364562 0.005828917472921402 -0.03308249948896541 -0.03534662478039003 -0.038179895566462146 -36.67732140265274 0.0032623652078203427 0.03956296230196184 -0.04481376309373737 0.03708803738303357 0.04399689403386343 0.011574347834218096 -0.006931071262709801 -0.02609091052693012 -19.775938679084383 -0.01814381012337597 -0.0018055351802580726 -0.007217078578244261 5.4814820783662716e-05 -0.030165560574592968 -0.006999398170642607 0.04910139578622462 -0.027983330625425247 24.058561938333998 -0.02096151112958896 -0.02311016970697121 28.890319616156592 -0.02680762873865278 -0.044795620218761885 28.864921197454176 0.008714585512543364 -0.0398808706136517 5.941949640227373 1.4148741217953558 13.195353937646834 -68.74976098252556 29.703191090363884 -7.537188670151155 3.6102293662776628 -10.014384691562928 -56.43870285279192 -10.906718978286506 -0.38040252399446284 2.125047776495016 -0.4761523385036624 0.11079721562050009 -8.10700821554698 -0.0011146637547105242 -0.01149494011179823 44.52742846144463 -0.035943088568904095 -0.02474157148870852 44.5734321368125 12.416911453145719 -0.02101583930065464 -0.04280055288187214 -0.038365175510669695 0.008862599109657959 -0.038158128966718774 0.014266941973076293 0.006498406221650218 -0.003758951189999807 11.11949117317058 0.03192435158814076 0.010184735184875214 -0.008232152445631963 -0.007463414813732063 0.0065960462952250574 -0.010858679175562538 0.010183882906022046 -0.02267821961455368 4.7530892855251485 0.0209700622108736 0.030145775500348856 0.022412604118837793 -0.014670099997084587 0.03109011438151683 0.009001582362086901 -0.0487936320643083 0.02111603632235186 -5.616763960830548 0.01332347593752288 0.02958106615178337 -6.693899954627776 -0.0336579933105056 0.013175163491017524 -6.693061782033422 -0.02622432925012721 0.024436737255269157 0.027643000118360656 -0.026766917260768526 -0.027526758896652435 8.042358683498016 3.522926628568421 -19.22173372401023 -0.0479721466874291 10.420823981025423 -0.023992545697769364 -5.595111454360413 -15.658936314783254 3.2293211971883333 0.04594668718570625 -0.0466282580900732 -0.01010943495967233 -0.01809688336110772 4.676899791844717 -0.0037777760951633885 12.44109358877864 -8.256658599846952 6.92174898432095 -0.012172583427712583 46.38375068675693 -0.040477360924036185 -4.302535007175717 -14.734761230186788 -3.878982689520493 -0.020522310321015574 0.005952879422774358 -0.01765054793410512 -0.04420324742839885 -10.70862238722296 0.03373276762467149 
0.04080524582702405 0.011797849868733813 -0.007101042256929007 0.011888990119847417 0.046721804563470186 -0.03240236411228745 -0.974466796287466 1.5237127051611847 -0.9946124381547072 -0.9573768999131463 3.901408865841603 0.32585238886356827 -1.1538868254450811 -1.914843985809663 -0.32483124965064064 0.6964668467930334 0.6347429995399057 -0.6554591265036427 0.7223761129298923 14.52568920232122 -2.743437087394519 0.12884070052880833 0.31484116707583915 -8.379388178902389 1.227357112366913 -15.078570884496465 -0.6268453172813617 -6.43449948750605 2.1248272142896996 -15.025478128041796 73.18549349551508 28.908053419139474 7.904890258883009 2.5517330246210292 2.2830194380153626 66.28849313263672 21.512652624076587 -0.3994449280204306 -4.359731484902031 4.512618220196439 -0.12052402983108622 -1.5908369570308611 -0.03185586658749135 0.001491314040876285 -56.206010097749804 -0.017576644423129457 0.003577970127394769 -56.23427206336923 -38.762027619858806 -0.03925419139516794 -0.00255112035082199 -0.021185518219407458 0.017619328775995122 -0.024785296761897446 -0.045942482773848436 0.03345933962427669 0.0048302190580345105 -36.663608243240255 0.00220065076135246 -0.012923823904810863 -0.03542314147876 0.03462109369005925 0.018639075144966287 0.04892255686210973 0.012479286740491206 -0.04033401414431599 -19.75688678388544 -0.01880393709113809 -0.004663676129996034 0.012926772517653782 -0.02965604322832483 -0.0022754745380916533 0.00041277917508535176 0.004609571102316964 0.004302801129166814 24.091271534932595 0.004684653649053109 -0.01419448358186629 28.9098037637948 0.010750031391268962 -0.027017315455119897 28.87317590412722 -0.01894579243083652 0.015130879461857769 6.074296108821983 1.453115949535597 13.257312098352296 -69.26270847735917 29.6812475539512 -7.070426896169267 3.554904257260928 -9.495360946046988 -54.879413171982804 -11.260681147292381 -0.2942429787794453 2.178763611356961 -0.4362843173586823 0.09553136850305381 -8.121990925022361 -0.04878283989896961 -0.006777450971570168 44.58634951681671 0.033127514048574 -0.04142997531335941 44.56559330214554 12.474887783683098 -0.021549518732889596 -0.003354653686495411 -0.043268917645489714 -0.0018902912299041752 0.04591183075545438 -0.047253575012426316 -0.04412974578292894 0.005142137087461968 11.116132080425364 0.03864230104998083 -0.02061652322464147 0.01492418413050893 0.006094979567333828 -0.008392798942779563 0.008019306956856417 -0.04007297081429478 0.018731717829930883 4.820220285235614 0.0013057501737138173 0.037137196623169534 0.014861470400271182 -0.012033505997565941 0.017936852022455565 0.030624510990722997 -0.04790969140788745 0.023467954063085356 -5.632623495668864 0.00844371384845998 -0.03503416131956718 -6.721804584285746 -0.004314414450885807 0.024095420840955322 -6.680084549207255 -5.705225984003578e-05 0.03179129314464619 -0.005784277212421627 -0.005659068324036398 -0.01933961424662631 8.054896258087512 3.457553595260355 -19.209647777104585 -0.03082898395659084 10.396618209014568 0.01985493018965567 -5.653560390305228 -15.622990162173316 3.148760271919267 0.004901301931430379 -0.04169633613033811 -0.025907177916593062 -0.038414000279334774 4.6869887591890755 -0.038664708269357466 12.481150833867515 -8.207490225193181 6.851354052796152 -0.03329874079039435 46.36870384938155 0.0316202433890938 -4.27716305272808 -14.756336630662778 -3.853273814422354 0.013746253377825974 0.024135460491159735 -0.037066494532568 -0.007754643650187137 -10.721355168804177 0.014248112361604622 
0.04306248367396962 0.03387636918046101 0.04926784989970836 0.02378939917322693 -0.032857830379093136 -0.02955266423225692 -0.7314991100504082 1.4717955115912016 -1.1090279948537765 -0.9271617527021507 3.9479828947065805 0.4148721855010373 -1.1994363036718658 -1.9548543525914377 -0.25213067583712145 0.687098468739933 0.5698352239069507 -0.6135186240993624 0.8813502939921708 14.559312893548443 -3.0600484680990325 0.13137157632726731 0.31205615842533124 -9.046083375186967 1.2484789646436407 -15.085303026896996 -0.7023502364260906 -6.690001728918121 2.1457405753104597 -15.177991278342219 73.29058705085194 29.137240063666614 8.187516898873945 2.6941199170689543 2.3079782989690023 66.1779123972522 21.549036135344586 -0.3762344822311442 -4.319998678943332 4.549851464806979 -0.09648549544057874 -1.6213786593949588 9.425975817628035e-05 -0.0055658565277263965 -56.24522925403877 -0.034991242292258376 0.03063907876257978 -56.255032115221354 -38.76338011476461 0.005606237607077401 0.0168808658554906 -0.032276985033401144 0.0017995402475029754 0.032345326388487555 0.013571515240315411 -0.047350079527997094 -0.005016000469929824 -36.652465286847 -0.025151832270458824 0.023235397913256205 0.04597439526047541 -0.019834135650431666 0.012954448453294031 0.02947514091996629 -0.009226484619688467 0.04719822803841797 -19.742208620307196 -0.02080668928498293 -0.018976358400103446 -0.0015265299672177696 -0.009202178191248515 -0.016752397242398933 -0.015210793413488733 -0.037901139373633146 -0.013744262851318011 24.013741935311188 0.021686792178754112 0.020895654682075725 28.864566373137148 0.002461294466027472 -0.04101523768642135 28.897230976324412 0.014137305681211628 -0.007219923445348502 6.01690730746892 1.509237327141202 13.278358706431254 -69.55699487376978 29.761902261634095 -6.371970143599775 3.2044468525257526 -8.928544105911575 -53.32758477805961 -11.751132633600633 -0.19851977066607246 2.1208254795534387 -0.4524118854759856 0.04898882188927743 -8.135014301007194 0.005666083926551822 0.04208349845779017 44.531160927093154 -0.03403582568239053 0.026995735473151157 44.592243386230344 12.495585292611946 0.03565934006729643 0.044137473093610054 -0.015095056579913592 0.00042249043537297956 -0.0063624789210366016 0.019116803253073165 0.011280173885628861 -0.02209782154946293 11.073893613565108 -0.024536731731676233 -0.006764242435480195 0.00457587603383464 -0.004959677201924448 -0.004606824983518111 -0.020701571861312662 -0.04506665097529616 -0.03413577010289079 4.7765865759602875 0.03882680402716655 0.016253364715910296 0.036285155339907914 0.03307783914800603 0.022149275150671287 0.029873653432155003 -0.04912494275738076 -0.03910678870113267 -5.629882664532551 0.023264561230336527 -9.572139483355799e-05 -6.731236061591452 -0.0187821257291957 -0.005132713231239943 -6.696088516386822 -0.01018315364169318 -0.03970418163215409 -0.01260830468015749 -0.016407142856976746 -0.010966451567161703 8.013221001936559 3.4580854088131696 -19.183177759181078 -0.037330191830089524 10.368068476412688 0.004146883570261443 -5.669439642628142 -15.638814983079799 3.17463946429328 0.004245135733648562 0.04101797956651344 0.00483749175720951 -0.00827163640189909 4.715060981569718 -0.01510302746188579 12.462216902830429 -8.225316843130308 6.850797408907769 0.03760979311116225 46.36222575991597 0.015330941076130623 -4.332544019751953 -14.77771394771802 -3.806830895682831 0.023962340258493826 -0.025208266074383735 0.0017224943878948642 -0.04923982982980975 -10.730871814431955 0.0365089516764539 
-0.04199832797877484 0.021827307558759713 0.030110899587492287 0.003199467258415231 0.03949216650463457 -0.015099771620947142 -0.47064704151025644 1.40408492277906 -1.1012360668274483 -0.8977758144033072 3.920641236910493 0.39811938379631856 -1.2094212929437125 -1.9325421222655463 -0.12358509564740397 0.7549181707481535 0.5817748748739037 -0.6113634346840464 0.9458113561216641 14.497012848125015 -3.3343106523109 0.126897777576585 0.25421743155151566 -9.758635792903595 1.330323621165427 -15.205103348650685 -0.7599027756484221 -6.890947737801242 2.288769520590336 -15.251247874109904 73.37037644011842 29.241437626539412 8.206172721445917 1.694606074886845 2.1444094882876663 66.11620650975715 21.602339117681147 -0.3711104336744511 -4.434072018108963 4.512769496799419 -0.11938264646442133 -1.6348710115830338 0.015166115928945845 -0.0031290172068564603 -56.265822686734616 0.047028476334540055 -0.041881499184964144 -56.234571541773214 -38.72683219341186 -0.023389558154115 0.013879870384857645 -0.0013858659505937001 -0.010547673120026477 0.032838304894323274 0.03278385367460578 0.04938331074201583 -0.013527477918329915 -36.67571530080086 0.048100011313947096 0.00010460081660226691 -0.015525135496707549 0.048211448053433976 -0.0017651754970590306 -0.03339172513265154 0.047605259470883524 -0.0058818925042900625 -19.744473664290414 -0.03848170381319585 -0.006480082392569243 -0.016283381595003518 -0.017182858444076316 -0.043731192903862307 0.012014705224855041 -0.04222208366644713 0.015685965186782235 24.046324397505945 -0.03682231019610086 -0.007132246493333854 28.866381873982224 0.01400109623400461 0.019672619205603082 28.85693821240808 -0.020728991339022982 0.002547750214616052 6.004141082187915 1.5077716414885842 13.349801059225856 -69.95195538568508 29.900174856128324 -5.630372705738816 2.7914213944121076 -8.163358817565193 -51.88773047344895 -12.296758616896366 -0.17305112079447785 2.0833570437351505 -0.5091885412863858 0.03458071585893142 -8.101343466804389 0.006648531462901489 -0.02027846758592115 44.53518703244423 -0.02509602869979746 0.01833872409411067 44.5420644241941 12.428383071364467 0.03455723201248027 0.029759935549876833 0.041081492327847774 -0.025680107657815414 -0.04819749803075322 0.02749090506728627 -0.04462582956245092 0.012386741987819973 11.071986265275406 -0.04948145256792872 0.030863590318552517 0.018887278699794115 0.021567322342491004 -0.02478566941098992 -0.0011243122688160288 0.036585006377527866 -0.006387031208061878 4.788657102145716 -0.03600344612857469 0.03911444746233918 -0.011294261938416034 0.008547791845709756 0.03257512063425556 -0.04564708915859497 0.0212902073972609 0.0445300388007519 -5.587833820797106 -0.03258318436998997 0.009687232581467427 -6.717922415864509 -0.03821122690859151 0.006386875532342629 -6.671848747458459 0.027335272390168367 -0.04739054728001156 -0.009856942512004033 -0.0029443896666311318 0.012058413196625145 8.051482089558947 3.4960187400838874 -19.228924409714978 0.017651182222476514 10.360428797911464 0.03639835807666361 -5.657886423109984 -15.682900506562268 3.185648884244686 0.011436402892669733 -0.001325735114252537 -0.010892210928869528 0.010195275652819337 4.721406813856709 0.014449448518775746 12.486708073092524 -8.24262502241889 6.910830550612008 -0.019441450066089692 46.360143152531876 -0.020869782179836305 -4.369819576007225 -14.796412744152203 -3.801167877179068 0.004493095710736625 0.047151071409434815 0.04300472083992506 0.033031281611137935 -10.716685443363637 -0.01941833005308024 
